<!-- Lucide static subset, ISC License -->
<svg xmlns="http://www.w3.org/2000/svg">
  <defs>
    <symbol id="home" viewBox="0 0 24 24"><path d="M15 21v-8a1 1 0 0 0-1-1h-4a1 1 0 0 0-1 1v8"/><path d="M3 10a2 2 0 0 1 .709-1.528l7-6a2 2 0 0 1 2.582 0l7 6A2 2 0 0 1 21 10v9a2 2 0 0 1-2 2H5a2 2 0 0 1-2-2z"/></symbol>
    <symbol id="globe" viewBox="0 0 24 24"><circle cx="12" cy="12" r="10"/><path d="M12 2a14.5 14.5 0 0 0 0 20 14.5 14.5 0 0 0 0-20"/><path d="M2 12h20"/></symbol>
    <symbol id="database" viewBox="0 0 24 24"><ellipse cx="12" cy="5" rx="9" ry="3"/><path d="M3 5v14a9 3 0 0 0 18 0V5"/><path d="M3 12a9 3 0 0 0 18 0"/></symbol>
    <symbol id="archive" viewBox="0 0 24 24"><rect width="20" height="5" x="2" y="3" rx="1"/><path d="M4 8v11a2 2 0 0 0 2 2h12a2 2 0 0 0 2-2V8"/><path d="M10 12h4"/></symbol>
    <symbol id="network" viewBox="0 0 24 24"><rect x="16" y="16" width="6" height="6" rx="1"/><rect x="2" y="16" width="6" height="6" rx="1"/><rect x="9" y="2" width="6" height="6" rx="1"/><path d="M5 16v-3a1 1 0 0 1 1-1h12a1 1 0 0 1 1 1v3"/><path d="M12 12V8"/></symbol>
    <symbol id="shield" viewBox="0 0 24 24"><path d="M20 13c0 5-3.5 7.5-7.66 8.95a1 1 0 0 1-.67-.01C7.5 20.5 4 18 4 13V6a1 1 0 0 1 1-1c2 0 4.5-1.2 6.24-2.72a1.17 1.17 0 0 1 1.52 0C14.51 3.81 17 5 19 5a1 1 0 0 1 1 1z"/><path d="m9 12 2 2 4-4"/></symbol>
    <symbol id="users" viewBox="0 0 24 24"><path d="M16 21v-2a4 4 0 0 0-4-4H6a4 4 0 0 0-4 4v2"/><path d="M16 3.128a4 4 0 0 1 0 7.744"/><path d="M22 21v-2a4 4 0 0 0-3-3.87"/><circle cx="9" cy="7" r="4"/></symbol>
    <symbol id="card" viewBox="0 0 24 24"><rect width="20" height="14" x="2" y="5" rx="2"/><line x1="2" x2="22" y1="10" y2="10"/></symbol>
    <symbol id="layers" viewBox="0 0 24 24"><path d="M12.83 2.18a2 2 0 0 0-1.66 0L2.6 6.08a1 1 0 0 0 0 1.83l8.58 3.91a2 2 0 0 0 1.66 0l8.58-3.9a1 1 0 0 0 0-1.83z"/><path d="M2 12a1 1 0 0 0 .58.91l8.6 3.91a2 2 0 0 0 1.65 0l8.58-3.9A1 1 0 0 0 22 12"/><path d="M2 17a1 1 0 0 0 .58.91l8.6 3.91a2 2 0 0 0 1.65 0l8.58-3.9A1 1 0 0 0 22 17"/></symbol>
    <symbol id="activity" viewBox="0 0 24 24"><path d="M22 12h-2.48a2 2 0 0 0-1.93 1.46l-2.35 8.36a.25.25 0 0 1-.48 0L9.24 2.18a.25.25 0 0 0-.48 0l-2.35 8.36A2 2 0 0 1 4.49 12H2"/></symbol>
    <symbol id="settings" viewBox="0 0 24 24"><path d="M9.671 4.136a2.34 2.34 0 0 1 4.659 0 2.34 2.34 0 0 0 3.319 1.915 2.34 2.34 0 0 1 2.33 4.033 2.34 2.34 0 0 0 0 3.831 2.34 2.34 0 0 1-2.33 4.033 2.34 2.34 0 0 0-3.319 1.915 2.34 2.34 0 0 1-4.659 0 2.34 2.34 0 0 0-3.32-1.915 2.34 2.34 0 0 1-2.33-4.033 2.34 2.34 0 0 0 0-3.831A2.34 2.34 0 0 1 6.35 6.051a2.34 2.34 0 0 0 3.319-1.915"/><circle cx="12" cy="12" r="3"/></symbol>
    <symbol id="x" viewBox="0 0 24 24"><path d="M18 6 6 18"/><path d="m6 6 12 12"/></symbol>
    <symbol id="search" viewBox="0 0 24 24"><path d="m21 21-4.34-4.34"/><circle cx="11" cy="11" r="8"/></symbol>
    <symbol id="menu" viewBox="0 0 24 24"><path d="M4 5h16"/><path d="M4 12h16"/><path d="M4 19h16"/></symbol>
    <symbol id="pause" viewBox="0 0 24 24"><circle cx="12" cy="12" r="10"/><line x1="10" x2="10" y1="15" y2="9"/><line x1="14" x2="14" y1="15" y2="9"/></symbol>
    <symbol id="chevron-right" viewBox="0 0 24 24"><path d="m9 18 6-6-6-6"/></symbol>
    <symbol id="copy" viewBox="0 0 24 24"><rect width="14" height="14" x="8" y="8" rx="2" ry="2"/><path d="M4 16c-1.1 0-2-.9-2-2V4c0-1.1.9-2 2-2h10c1.1 0 2 .9 2 2"/></symbol>
    <symbol id="corner-up-left" viewBox="0 0 24 24"><polyline points="9 14 4 9 9 4"/><path d="M4 9h10.5a5.5 5.5 0 0 1 5.5 5.5A5.5 5.5 0 0 1 14.5 20H11"/></symbol>
    <symbol id="download" viewBox="0 0 24 24"><path d="M21 15v4a2 2 0 0 1-2 2H5a2 2 0 0 1-2-2v-4"/><polyline points="7 10 12 15 17 10"/><line x1="12" x2="12" y1="15" y2="3"/></symbol>
    <symbol id="ellipsis" viewBox="0 0 24 24"><circle cx="12" cy="12" r="1"/><circle cx="19" cy="12" r="1"/><circle cx="5" cy="12" r="1"/></symbol>
    <symbol id="file" viewBox="0 0 24 24"><path d="M14.5 2H6a2 2 0 0 0-2 2v16a2 2 0 0 0 2 2h12a2 2 0 0 0 2-2V7.5z"/><polyline points="14 2 14 8 20 8"/></symbol>
    <symbol id="file-archive" viewBox="0 0 24 24"><path d="M14.5 2H6a2 2 0 0 0-2 2v16a2 2 0 0 0 2 2h12a2 2 0 0 0 2-2V7.5z"/><polyline points="14 2 14 8 20 8"/><path d="M10 12v-1h3v1"/><path d="M10 18h4v-2h-4z"/><path d="M10 7h1"/><path d="M10 9h1"/></symbol>
    <symbol id="file-code" viewBox="0 0 24 24"><path d="M14.5 2H6a2 2 0 0 0-2 2v16a2 2 0 0 0 2 2h12a2 2 0 0 0 2-2V7.5z"/><polyline points="14 2 14 8 20 8"/><path d="m10 13-2 2 2 2"/><path d="m14 17 2-2-2-2"/></symbol>
    <symbol id="file-pen" viewBox="0 0 24 24"><path d="M12 22h6a2 2 0 0 0 2-2V7.5L14.5 2H6a2 2 0 0 0-2 2v10"/><polyline points="14 2 14 8 20 8"/><path d="M10.4 12.6a2 2 0 0 1 2.8 2.8L6 22l-4 1 1-4z"/></symbol>
    <symbol id="folder" viewBox="0 0 24 24"><path d="M20 20a2 2 0 0 0 2-2V8a2 2 0 0 0-2-2h-7.9a2 2 0 0 1-1.69-.9L9.6 3.9A2 2 0 0 0 7.9 3H4a2 2 0 0 0-2 2v13a2 2 0 0 0 2 2z"/></symbol>
    <symbol id="folder-open" viewBox="0 0 24 24"><path d="m6 14 1.5-2.9A2 2 0 0 1 9.24 10H20a2 2 0 0 1 1.94 2.5l-1.54 6a2 2 0 0 1-1.95 1.5H4a2 2 0 0 1-2-2V5a2 2 0 0 1 2-2h3.9a2 2 0 0 1 1.69.9l.81 1.2a2 2 0 0 0 1.7.9H18a2 2 0 0 1 2 2v2"/></symbol>
    <symbol id="folder-up" viewBox="0 0 24 24"><path d="M20 20a2 2 0 0 0 2-2V8a2 2 0 0 0-2-2h-7.9a2 2 0 0 1-1.69-.9L9.6 3.9A2 2 0 0 0 7.9 3H4a2 2 0 0 0-2 2v13a2 2 0 0 0 2 2z"/><path d="m12 10-3 3"/><path d="m12 10 3 3"/><path d="M12 10v6"/></symbol>
    <symbol id="folders" viewBox="0 0 24 24"><path d="M20 20a2 2 0 0 0 2-2V8a2 2 0 0 0-2-2h-7.9a2 2 0 0 1-1.69-.9L9.6 3.9A2 2 0 0 0 7.9 3H4a2 2 0 0 0-2 2v13a2 2 0 0 0 2 2z"/><path d="M2 10h20"/></symbol>
    <symbol id="move" viewBox="0 0 24 24"><polyline points="5 9 2 12 5 15"/><polyline points="9 5 12 2 15 5"/><polyline points="15 19 12 22 9 19"/><polyline points="19 9 22 12 19 15"/><line x1="2" x2="22" y1="12" y2="12"/><line x1="12" x2="12" y1="2" y2="22"/></symbol>
    <symbol id="package-open" viewBox="0 0 24 24"><path d="M12 22v-9"/><path d="M15.5 9.5 12 13 8.5 9.5"/><path d="M21 16V8a2 2 0 0 0-1-1.73l-7-4a2 2 0 0 0-2 0l-7 4A2 2 0 0 0 3 8v8a2 2 0 0 0 1 1.73l7 4a2 2 0 0 0 2 0l7-4A2 2 0 0 0 21 16z"/><path d="M3.3 7 12 12l8.7-5"/><path d="m7.5 4.3 9 5.2"/></symbol>
    <symbol id="pencil" viewBox="0 0 24 24"><path d="M21.17 6.17a2.83 2.83 0 0 0-4-4L3 16.34 2 22l5.66-1z"/><path d="m15 4 4 4"/></symbol>
    <symbol id="plus" viewBox="0 0 24 24"><path d="M5 12h14"/><path d="M12 5v14"/></symbol>
    <symbol id="save" viewBox="0 0 24 24"><path d="M15.2 3a2 2 0 0 1 1.4.6l3.8 3.8a2 2 0 0 1 .6 1.4V19a2 2 0 0 1-2 2H5a2 2 0 0 1-2-2V5a2 2 0 0 1 2-2z"/><path d="M17 21v-8H7v8"/><path d="M7 3v5h8"/></symbol>
    <symbol id="shield-check" viewBox="0 0 24 24"><path d="M20 13c0 5-3.5 7.5-7.66 8.95a1 1 0 0 1-.67-.01C7.5 20.5 4 18 4 13V6a1 1 0 0 1 1-1c2 0 4.5-1.2 6.24-2.72a1.17 1.17 0 0 1 1.52 0C14.51 3.81 17 5 19 5a1 1 0 0 1 1 1z"/><path d="m9 12 2 2 4-4"/></symbol>
    <symbol id="trash" viewBox="0 0 24 24"><path d="M3 6h18"/><path d="M8 6V4a2 2 0 0 1 2-2h4a2 2 0 0 1 2 2v2"/><path d="M19 6 18 20a2 2 0 0 1-2 2H8a2 2 0 0 1-2-2L5 6"/><path d="M10 11v6"/><path d="M14 11v6"/></symbol>
    <symbol id="triangle-alert" viewBox="0 0 24 24"><path d="m21.73 18-8-14a2 2 0 0 0-3.46 0l-8 14A2 2 0 0 0 4 21h16a2 2 0 0 0 1.73-3"/><path d="M12 9v4"/><path d="M12 17h.01"/></symbol>
    <symbol id="upload" viewBox="0 0 24 24"><path d="M21 15v4a2 2 0 0 1-2 2H5a2 2 0 0 1-2-2v-4"/><polyline points="17 8 12 3 7 8"/><line x1="12" x2="12" y1="3" y2="15"/></symbol>
  </defs>
</svg>
